{"title":"Tyrannosaur.2011.BRRip.AC3.HORiZON-ArtSubs","uid":7009328,"size":1526630129,"categoryP":"video","categoryS":"movies","magnet":"?xt=urn:btih:b9d51253623e66eb0488e0704b289858ec6747f2&amp;dn=Tyrannosaur.2011.BRRip.AC3.HORiZON-ArtSubs&amp;tr=udp%3A%2F%2Ftracker.openbittorrent.com%3A80&amp;tr=udp%3A%2F%2Fopen.demonii.com%3A1337&amp;tr=udp%3A%2F%2Ftracker.coppersurfer.tk%3A6969&amp;tr=udp%3A%2F%2Fexodus.desync.com%3A6969","seeders":2,"leechers":1,"uploader":"lletaif","files":3,"time":1328385037,"description":"Title: Tyrannosaur\n\nCountry: UK (2011)\n\nDirector: Paddy Considine\n\nWriter: Paddy Considine (screenplay)\n\nStars: Peter Mullan, Olivia Colman and Eddie Marsan\n\nLanguage: English\n\nSubtitle: English\n\nPlot: Joseph, a man plagued by violence and a rage that is driving him to self-destruction, earns a chance of redemption that appears in the form of Hannah, a Christian charity shop worker.\n\nImdb: http://www.imdb.com/title/tt1204340/\n\nRip Specs:\n\n\nGeneral\nComplete name                    : Tyrannosaur.2011.BRRip.AC3.HORiZON-ArtSubs.avi\nFormat                           : AVI\nFormat/Info                      : Audio Video Interleave\nFile size                        : 1.42 GiB\nDuration                         : 1h 32mn\nOverall bit rate                 : 2 200 Kbps\nWriting application              : FairUse Wizard - http://fairusewizard.com\nWriting library                  : The best and REALLY easy backup tool\n\nVideo\nID                               : 0\nFormat                           : MPEG-4 Visual\nFormat profile                   : Advanced Simple@L5\nFormat settings, BVOP            : 1\nFormat settings, QPel            : No\nFormat settings, GMC             : No warppoints\nFormat settings, Matrix          : Default (MPEG)\nMuxing mode                      : Packed bitstream\nCodec ID                         : XVID\nCodec ID/Hint                    : XviD\nDuration                         : 1h 32mn\nBit rate                         : 1 742 Kbps\nWidth                            : 704 pixels\nHeight                           : 288 pixels\nDisplay aspect ratio             : 2.40:1\nFrame rate                       : 23.976 fps\nColor space                      : YUV\nChroma subsampling               : 4:2:0\nBit depth                        : 8 bits\nScan type                        : Progressive\nCompression mode                 : Lossy\nBits/(Pixel*Frame)               : 0.358\nStream size                      : 1.12 GiB (79%)\nWriting library                  : XviD 1.2.0.dev47 (UTC 2006-11-01)\n\nAudio\nID                               : 1\nFormat                           : AC-3\nFormat/Info                      : Audio Coding 3\nMode extension                   : CM (complete main)\nCodec ID                         : 2000\nDuration                         : 1h 32mn\nBit rate mode                    : Constant\nBit rate                         : 448 Kbps\nChannel(s)                       : 6 channels\nChannel positions                : Front: L C R, Side: L R, LFE\nSampling rate                    : 48.0 KHz\nBit depth                        : 16 bits\nCompression mode                 : Lossy\nStream size                      : 296 MiB (20%)\nAlignment                        : Split accross interleaves\nInterleave, duration             : 42 ms (1.00 video frame)\nInterleave, preload duration     : 500 ms\n","torrent":{"xt":"urn:btih:b9d51253623e66eb0488e0704b289858ec6747f2","amp;dn":"Tyrannosaur.2011.BRRip.AC3.HORiZON-ArtSubs","amp;tr":["udp%3A%2F%2Ftracker.openbittorrent.com%3A80","udp%3A%2F%2Fopen.demonii.com%3A1337","udp%3A%2F%2Ftracker.coppersurfer.tk%3A6969","udp%3A%2F%2Fexodus.desync.com%3A6969"],"infoHash":"b9d51253623e66eb0488e0704b289858ec6747f2","infoHashBuffer":{"type":"Buffer","data":[185,213,18,83,98,62,102,235,4,136,224,112,75,40,152,88,236,103,71,242]},"announce":[],"urlList":[]}}